<mxfile host="app.diagrams.net" agent="Mozilla/5.0 (Windows NT 10.0; Win64; x64) AppleWebKit/537.36 (KHTML, like Gecko) Chrome/128.0.0.0 Safari/537.36" version="24.8.3">
  <diagram id="50V51Fa7qwyH7GF4jYZ3" name="Trang-1">
    <mxGraphModel dx="1050" dy="603" grid="0" gridSize="10" guides="1" tooltips="1" connect="1" arrows="1" fold="1" page="1" pageScale="1" pageWidth="1169" pageHeight="827" math="0" shadow="0">
      <root>
        <mxCell id="0" />
        <mxCell id="1" parent="0" />
        <mxCell id="skGFS0dZQDj36lblgueO-3" style="edgeStyle=orthogonalEdgeStyle;rounded=0;orthogonalLoop=1;jettySize=auto;html=1;exitX=1;exitY=0.5;exitDx=0;exitDy=0;entryX=0;entryY=0.5;entryDx=0;entryDy=0;" edge="1" parent="1" source="skGFS0dZQDj36lblgueO-1" target="skGFS0dZQDj36lblgueO-2">
          <mxGeometry relative="1" as="geometry" />
        </mxCell>
        <mxCell id="skGFS0dZQDj36lblgueO-1" value="Bắt đầu" style="rounded=0;whiteSpace=wrap;html=1;fillColor=#d5e8d4;strokeColor=#82b366;" vertex="1" parent="1">
          <mxGeometry x="160" y="160" width="80" height="40" as="geometry" />
        </mxCell>
        <mxCell id="skGFS0dZQDj36lblgueO-5" style="edgeStyle=orthogonalEdgeStyle;rounded=0;orthogonalLoop=1;jettySize=auto;html=1;exitX=0.5;exitY=1;exitDx=0;exitDy=0;entryX=0.5;entryY=0;entryDx=0;entryDy=0;" edge="1" parent="1" source="skGFS0dZQDj36lblgueO-2" target="skGFS0dZQDj36lblgueO-4">
          <mxGeometry relative="1" as="geometry" />
        </mxCell>
        <mxCell id="skGFS0dZQDj36lblgueO-2" value="Khởi động cảm biến" style="rounded=0;whiteSpace=wrap;html=1;" vertex="1" parent="1">
          <mxGeometry x="320" y="160" width="120" height="40" as="geometry" />
        </mxCell>
        <mxCell id="skGFS0dZQDj36lblgueO-8" style="edgeStyle=orthogonalEdgeStyle;rounded=0;orthogonalLoop=1;jettySize=auto;html=1;exitX=0.5;exitY=1;exitDx=0;exitDy=0;entryX=0.5;entryY=0;entryDx=0;entryDy=0;" edge="1" parent="1" source="skGFS0dZQDj36lblgueO-4" target="skGFS0dZQDj36lblgueO-7">
          <mxGeometry relative="1" as="geometry" />
        </mxCell>
        <mxCell id="skGFS0dZQDj36lblgueO-4" value="Khởi động kết nối WiFi" style="rounded=0;whiteSpace=wrap;html=1;" vertex="1" parent="1">
          <mxGeometry x="320" y="240" width="120" height="40" as="geometry" />
        </mxCell>
        <mxCell id="skGFS0dZQDj36lblgueO-10" style="edgeStyle=orthogonalEdgeStyle;rounded=0;orthogonalLoop=1;jettySize=auto;html=1;exitX=1;exitY=0.5;exitDx=0;exitDy=0;entryX=0;entryY=0.5;entryDx=0;entryDy=0;" edge="1" parent="1" source="skGFS0dZQDj36lblgueO-7" target="skGFS0dZQDj36lblgueO-9">
          <mxGeometry relative="1" as="geometry" />
        </mxCell>
        <mxCell id="skGFS0dZQDj36lblgueO-13" style="edgeStyle=orthogonalEdgeStyle;rounded=0;orthogonalLoop=1;jettySize=auto;html=1;exitX=0.5;exitY=1;exitDx=0;exitDy=0;entryX=0.5;entryY=0;entryDx=0;entryDy=0;" edge="1" parent="1" source="skGFS0dZQDj36lblgueO-7" target="skGFS0dZQDj36lblgueO-12">
          <mxGeometry relative="1" as="geometry" />
        </mxCell>
        <mxCell id="skGFS0dZQDj36lblgueO-7" value="Kiểm tra thiết bị có&lt;div&gt;được&amp;nbsp;&lt;span style=&quot;background-color: initial;&quot;&gt;đeo hay không&lt;/span&gt;&lt;/div&gt;" style="rhombus;whiteSpace=wrap;html=1;" vertex="1" parent="1">
          <mxGeometry x="280" y="320" width="200" height="80" as="geometry" />
        </mxCell>
        <mxCell id="skGFS0dZQDj36lblgueO-15" style="edgeStyle=orthogonalEdgeStyle;rounded=0;orthogonalLoop=1;jettySize=auto;html=1;exitX=0.5;exitY=1;exitDx=0;exitDy=0;entryX=1;entryY=0.5;entryDx=0;entryDy=0;" edge="1" parent="1" source="skGFS0dZQDj36lblgueO-9" target="skGFS0dZQDj36lblgueO-12">
          <mxGeometry relative="1" as="geometry" />
        </mxCell>
        <mxCell id="skGFS0dZQDj36lblgueO-9" value="Gửi dữ liệu lên Firebase" style="rounded=0;whiteSpace=wrap;html=1;" vertex="1" parent="1">
          <mxGeometry x="560" y="330" width="120" height="60" as="geometry" />
        </mxCell>
        <mxCell id="skGFS0dZQDj36lblgueO-11" value="Đúng" style="text;html=1;align=center;verticalAlign=middle;resizable=0;points=[];autosize=1;strokeColor=none;fillColor=none;" vertex="1" parent="1">
          <mxGeometry x="494" y="330" width="50" height="30" as="geometry" />
        </mxCell>
        <mxCell id="skGFS0dZQDj36lblgueO-16" style="edgeStyle=orthogonalEdgeStyle;rounded=0;orthogonalLoop=1;jettySize=auto;html=1;exitX=0;exitY=0.5;exitDx=0;exitDy=0;entryX=0;entryY=0.5;entryDx=0;entryDy=0;" edge="1" parent="1" source="skGFS0dZQDj36lblgueO-12" target="skGFS0dZQDj36lblgueO-7">
          <mxGeometry relative="1" as="geometry">
            <Array as="points">
              <mxPoint x="160" y="470" />
              <mxPoint x="160" y="360" />
            </Array>
          </mxGeometry>
        </mxCell>
        <mxCell id="skGFS0dZQDj36lblgueO-12" value="Không làm gì cả" style="rounded=0;whiteSpace=wrap;html=1;" vertex="1" parent="1">
          <mxGeometry x="320" y="440" width="120" height="60" as="geometry" />
        </mxCell>
        <mxCell id="skGFS0dZQDj36lblgueO-14" value="Sai" style="text;html=1;align=center;verticalAlign=middle;resizable=0;points=[];autosize=1;strokeColor=none;fillColor=none;" vertex="1" parent="1">
          <mxGeometry x="340" y="404" width="40" height="30" as="geometry" />
        </mxCell>
      </root>
    </mxGraphModel>
  </diagram>
</mxfile>
